<svg width="15" height="14" viewBox="0 0 15 14" fill="none" xmlns="http://www.w3.org/2000/svg">
<path d="M8.27344 13.1562C8.49219 13.1562 8.67188 13.0703 8.82812 12.9297L14.625 7.25781C14.7969 7.08594 14.8906 6.89062 14.8906 6.66406C14.8906 6.4375 14.7969 6.22656 14.625 6.0625L8.82031 0.398438C8.67188 0.25 8.49219 0.171875 8.27344 0.171875C7.82812 0.171875 7.48438 0.515625 7.48438 0.953125C7.48438 1.16406 7.57812 1.36719 7.71875 1.51562L12.9922 6.66406L7.71875 11.8125C7.57812 11.9609 7.48438 12.1562 7.48438 12.375C7.48438 12.8125 7.82812 13.1562 8.27344 13.1562ZM1.67188 13.1562C1.89062 13.1562 2.07031 13.0703 2.21875 12.9297L8.02344 7.25781C8.19531 7.08594 8.28125 6.89062 8.28125 6.66406C8.28125 6.4375 8.19531 6.22656 8.01562 6.0625L2.21875 0.398438C2.07031 0.25 1.89062 0.171875 1.67188 0.171875C1.22656 0.171875 0.882812 0.515625 0.882812 0.953125C0.882812 1.16406 0.96875 1.36719 1.11719 1.51562L6.39062 6.66406L1.11719 11.8125C0.976562 11.9609 0.882812 12.1562 0.882812 12.375C0.882812 12.8125 1.22656 13.1562 1.67188 13.1562Z" fill="white"/>
</svg>
